Run_30002
nRows=4
nColumns=164

# SIMM Motion File Header:
name Run_30002
datacolumns 164
datarows 4
otherdata 1
range 2.95000000 2.98000000
endheader
time	pelvis_tilt	pelvis_list	pelvis_rotation	pelvis_tx	pelvis_ty	pelvis_tz	hip_flexion_r	hip_adduction_r	hip_rotation_r	knee_angle_r	ankle_angle_r	hip_flexion_l	hip_adduction_l	hip_rotation_l	knee_angle_l	ankle_angle_l	lumbar_extension	lumbar_bending	lumbar_rotation	arm_flex_r	arm_add_r	arm_rot_r	elbow_flex_r	pro_sup_r	arm_flex_l	arm_add_l	arm_rot_l	elbow_flex_l	pro_sup_l	subtalar_angle_r	mtp_angle_r	subtalar_angle_l	mtp_angle_l	wrist_flex_r	wrist_dev_r	wrist_flex_l	wrist_dev_l	LASI_tx	LASI_ty	LASI_tz	RASI_tx	RASI_ty	RASI_tz	LPSI_tx	LPSI_ty	LPSI_tz	RPSI_tx	RPSI_ty	RPSI_tz	RTH1_tx	RTH1_ty	RTH1_tz	RTH2_tx	RTH2_ty	RTH2_tz	RTH3_tx	RTH3_ty	RTH3_tz	LTH1_tx	LTH1_ty	LTH1_tz	LTH2_tx	LTH2_ty	LTH2_tz	LTH3_tx	LTH3_ty	LTH3_tz	RTB1_tx	RTB1_ty	RTB1_tz	RTB2_tx	RTB2_ty	RTB2_tz	RTB3_tx	RTB3_ty	RTB3_tz	LTB1_tx	LTB1_ty	LTB1_tz	LTB2_tx	LTB2_ty	LTB2_tz	LTB3_tx	LTB3_ty	LTB3_tz	RCAL_tx	RCAL_ty	RCAL_tz	RTOE_tx	RTOE_ty	RTOE_tz	RMT5_tx	RMT5_ty	RMT5_tz	LCAL_tx	LCAL_ty	LCAL_tz	LTOE_tx	LTOE_ty	LTOE_tz	LMT5_tx	LMT5_ty	LMT5_tz	LACR_tx	LACR_ty	LACR_tz	RACR_tx	RACR_ty	RACR_tz	CLAV_tx	CLAV_ty	CLAV_tz	C7_tx	C7_ty	C7_tz	RUA1_tx	RUA1_ty	RUA1_tz	RUA2_tx	RUA2_ty	RUA2_tz	RUA3_tx	RUA3_ty	RUA3_tz	RLEL_tx	RLEL_ty	RLEL_tz	RMEL_tx	RMEL_ty	RMEL_tz	LUA1_tx	LUA1_ty	LUA1_tz	LUA2_tx	LUA2_ty	LUA2_tz	LUA3_tx	LUA3_ty	LUA3_tz	LLEL_tx	LLEL_ty	LLEL_tz	LMEL_tx	LMEL_ty	LMEL_tz	RFAsuperior_tx	RFAsuperior_ty	RFAsuperior_tz	RFAradius_tx	RFAradius_ty	RFAradius_tz	RFAulna_tx	RFAulna_ty	RFAulna_tz	LFAsuperior_tx	LFAsuperior_ty	LFAsuperior_tz	LFAradius_tx	LFAradius_ty	LFAradius_tz	LFAulna_tx	LFAulna_ty	LFAulna_tz
      2.95000000	     -7.76965456	      0.66582005	     -3.72398317	      0.92356990	      0.97912976	     -0.31825246	    -10.87858185	     -2.97325299	     -5.87785918	    -41.76992279	    -19.11757009	     32.28179878	      2.10491234	     -3.42097261	    -11.99948874	      2.99384794	     -2.11054777	     -2.96128192	     16.97583799	    -13.14631708	    -27.79488474	     -3.52663994	    122.52016789	     86.87461565	    -40.67836747	    -17.77346167	    -10.13150890	    118.05403386	    112.78332970	      0.00000000	      0.00000000	      0.00000000	      0.00000000	      0.00000000	      0.00000000	      0.00000000	      0.00000000	      0.93477394	      0.99685757	     -0.43552408	      0.91980235	      1.00355620	     -0.19698226	      0.77076389	      1.05079091	     -0.38066954	      0.76391872	      1.05514105	     -0.27961803	      0.78897918	      0.77234959	     -0.14775915	      0.81917017	      0.67463148	     -0.15848642	      0.72819504	      0.60830002	     -0.17227611	      0.93738144	      0.81063554	     -0.49503202	      1.02031537	      0.72448884	     -0.47596833	      0.99889487	      0.60766867	     -0.45089738	      0.61645928	      0.41742080	     -0.22914463	      0.52833586	      0.40971548	     -0.18662681	      0.45242959	      0.32436533	     -0.24552776	      1.09420344	      0.43509196	     -0.38506587	      1.05846639	      0.34452656	     -0.44445453	      1.11457025	      0.24627106	     -0.37401336	      0.34077085	      0.36374323	     -0.28215338	      0.35988754	      0.14350457	     -0.27123526	      0.30406097	      0.19023607	     -0.18486788	      1.04813676	      0.09873813	     -0.35712042	      1.26124702	      0.14680669	     -0.34935244	      1.23043012	      0.09599101	     -0.44429979	      0.89066929	      1.48651603	     -0.48915505	      0.93478212	      1.48643109	     -0.20736499	      0.99794873	      1.41358932	     -0.34530272	      0.86444293	      1.51334588	     -0.33654022	      0.92208394	      1.39444946	     -0.09644850	      0.85740260	      1.33403887	     -0.07984928	      0.91449751	      1.28664156	     -0.03021587	      0.90571862	      1.21804030	      0.00800859	      0.86155893	      1.18039512	     -0.04590185	      0.77849876	      1.42494531	     -0.55548941	      0.73472533	      1.38528271	     -0.48969343	      0.71447742	      1.34760681	     -0.56921638	      0.65006889	      1.27970939	     -0.57658975	      0.64598809	      1.26289696	     -0.50415048	      1.00950476	      1.22464967	     -0.04626794	      1.07864467	      1.23834333	     -0.16246903	      1.09194800	      1.17345528	     -0.13820246	      0.76098248	      1.24405099	     -0.58679749	      0.87774681	      1.17606868	     -0.53188886	      0.83505895	      1.13892745	     -0.57561766
      2.96000000	     -7.21744651	      0.63797354	     -3.81646830	      0.92449858	      0.97518680	     -0.31874526	     -9.59323768	     -2.96810246	     -4.29050481	    -47.70083463	    -16.98405518	     31.32788027	      2.21141079	     -4.16353293	    -14.01454146	      1.70411657	     -2.61272270	     -3.04235826	     16.09000645	    -13.81908177	    -27.53336603	     -3.41948945	    121.85864451	     87.51193723	    -40.05977812	    -17.74654234	    -10.05442464	    118.55316242	    112.92791435	      0.00000000	      0.00000000	      0.00000000	      0.00000000	      0.00000000	      0.00000000	      0.00000000	      0.00000000	      0.93573125	      0.99275124	     -0.43659212	      0.92117501	      1.00021840	     -0.19730932	      0.77184226	      1.04451253	     -0.38203879	      0.76498910	      1.04884648	     -0.28093571	      0.79662939	      0.76548587	     -0.14800249	      0.82912814	      0.66847637	     -0.15869575	      0.74016970	      0.59978327	     -0.17134711	      0.93811979	      0.80528849	     -0.49555897	      1.02055543	      0.72014015	     -0.47609522	      0.99778649	      0.60174545	     -0.44983368	      0.62434907	      0.41445578	     -0.22884815	      0.53586611	      0.41233032	     -0.18640895	      0.45419743	      0.33312132	     -0.24551806	      1.08637896	      0.42623670	     -0.38251521	      1.04821935	      0.33645565	     -0.44284506	      1.10107221	      0.23626231	     -0.37218124	      0.34313777	      0.37979239	     -0.28236493	      0.35196354	      0.15908367	     -0.26924757	      0.30226079	      0.20940630	     -0.18128422	      1.02987520	      0.09734657	     -0.35359326	      1.24457743	      0.12750068	     -0.34828408	      1.20883500	      0.08068943	     -0.44479862	      0.89292113	      1.48151360	     -0.49113425	      0.93303306	      1.48168966	     -0.20841909	      0.99794857	      1.40901437	     -0.34509893	      0.86460332	      1.50888577	     -0.33876974	      0.91747889	      1.39008119	     -0.09695790	      0.85138281	      1.32983491	     -0.08268462	      0.90722955	      1.28322522	     -0.03023011	      0.89722204	      1.21487788	      0.00786180	      0.85354931	      1.17771317	     -0.04653853	      0.78211392	      1.41772540	     -0.55961630	      0.73735319	      1.37841498	     -0.49437873	      0.71904906	      1.33966600	     -0.57361396	      0.65550758	      1.27100798	     -0.58127382	      0.65043298	      1.25465467	     -0.50861718	      1.00221758	      1.21882682	     -0.04457998	      1.07349651	      1.23003367	     -0.16012850	      1.08518867	      1.16547375	     -0.13469309	      0.76731015	      1.23777524	     -0.58945611	      0.88442887	      1.17259706	     -0.53218916	      0.84326195	      1.13473658	     -0.57681171
      2.97000000	     -6.69488718	      0.71883552	     -3.66325450	      0.92512939	      0.97027891	     -0.31946650	     -8.10930900	     -3.01600301	     -3.27696641	    -53.79420893	    -15.10575577	     30.52021607	      2.57251252	     -4.54525847	    -16.44788740	     -0.13022263	     -3.08361389	     -3.25141968	     14.91716808	    -14.62577859	    -27.24366555	     -3.28273956	    121.00581603	     88.05420168	    -39.23364205	    -17.96808778	     -9.86610449	    118.97562240	    113.21138644	      0.00000000	      0.00000000	      0.00000000	      0.00000000	      0.00000000	      0.00000000	      0.00000000	      0.00000000	      0.93613420	      0.98785035	     -0.43794998	      0.92278394	      0.99527567	     -0.19812645	      0.77229779	      1.03752840	     -0.38315275	      0.76584194	      1.04146526	     -0.28215062	      0.80473701	      0.75773020	     -0.14790743	      0.83950685	      0.66145133	     -0.15791479	      0.75279084	      0.59045436	     -0.17019109	      0.93915339	      0.79993847	     -0.49478416	      1.02025137	      0.71597458	     -0.47497357	      0.99543684	      0.59540348	     -0.44889701	      0.63415209	      0.41117925	     -0.22859271	      0.54548049	      0.41437521	     -0.18599555	      0.45883058	      0.34169761	     -0.24559791	      1.07883828	      0.41589406	     -0.38140625	      1.03664465	      0.32826342	     -0.44077807	      1.08698213	      0.22623117	     -0.36995075	      0.34923792	      0.39551332	     -0.28222680	      0.34707346	      0.17474545	     -0.26767733	      0.30371828	      0.22810521	     -0.17814286	      1.00917047	      0.09812754	     -0.34956559	      1.22492131	      0.10582985	     -0.34564785	      1.18493208	      0.06528081	     -0.44384174	      0.89483498	      1.47546395	     -0.49288585	      0.93108841	      1.47597166	     -0.20950737	      0.99785947	      1.40336999	     -0.34467406	      0.86436758	      1.50305327	     -0.34105778	      0.91218079	      1.38504447	     -0.09751169	      0.84490066	      1.32547936	     -0.08509410	      0.89923513	      1.27891739	     -0.03029219	      0.88765951	      1.21095924	      0.00783216	      0.84447059	      1.17433375	     -0.04718163	      0.78585230	      1.40924964	     -0.56381711	      0.73984183	      1.37014735	     -0.49957573	      0.72413143	      1.33011785	     -0.57856652	      0.66168369	      1.26078278	     -0.58694905	      0.65527778	      1.24469319	     -0.51411326	      0.99380886	      1.21178603	     -0.04258820	      1.06752275	      1.21991268	     -0.15724159	      1.07713477	      1.15579185	     -0.13060228	      0.77443425	      1.23017869	     -0.59298235	      0.89139880	      1.16797582	     -0.53238835	      0.85222520	      1.12934723	     -0.57826268
      2.98000000	     -6.26977953	      0.95678729	     -3.13629727	      0.92488213	      0.96456634	     -0.32063813	     -6.32175384	     -3.18083375	     -2.87126416	    -60.02815181	    -13.56719338	     30.35019363	      3.26011824	     -4.49923786	    -19.87731555	     -0.87676190	     -3.53848732	     -3.62531012	     13.33492868	    -15.47106833	    -26.91530384	     -3.15156774	    119.94815435	     88.61605636	    -38.10169762	    -18.43208826	     -9.61738377	    119.23836431	    113.33032996	      0.00000000	      0.00000000	      0.00000000	      0.00000000	      0.00000000	      0.00000000	      0.00000000	      0.00000000	      0.93545273	      0.98262439	     -0.43927974	      0.92454174	      0.98894991	     -0.19964414	      0.77134936	      1.03029715	     -0.38351786	      0.76592523	      1.03349300	     -0.28299720	      0.81306461	      0.74923159	     -0.14772854	      0.85007163	      0.65393841	     -0.15656746	      0.76586938	      0.58067233	     -0.16920107	      0.93951229	      0.79487235	     -0.49364325	      1.01954548	      0.71124949	     -0.47301962	      0.99317237	      0.59021568	     -0.44876031	      0.64594195	      0.40789812	     -0.22872323	      0.55726468	      0.41595243	     -0.18536936	      0.46644894	      0.34998929	     -0.24571434	      1.07354005	      0.40690158	     -0.38138818	      1.02707800	      0.32207322	     -0.43861963	      1.07344246	      0.21847542	     -0.36696892	      0.35916114	      0.41044840	     -0.28158500	      0.34580428	      0.19016289	     -0.26611876	      0.30756700	      0.24598982	     -0.17566758	      0.98672578	      0.10007655	     -0.34566471	      1.20317842	      0.08701996	     -0.34268327	      1.15998068	      0.05441188	     -0.44203461	      0.89655624	      1.46852621	     -0.49453306	      0.92890911	      1.46973613	     -0.21022943	      0.99792071	      1.39664925	     -0.34408159	      0.86360597	      1.49595925	     -0.34332316	      0.90616312	      1.37929220	     -0.09803762	      0.83809479	      1.32078476	     -0.08713147	      0.89069736	      1.27361714	     -0.03052790	      0.87712243	      1.20645759	      0.00782585	      0.83436994	      1.17044090	     -0.04789419	      0.78963185	      1.39967683	     -0.56791013	      0.74224226	      1.36049921	     -0.50511995	      0.72967820	      1.31921388	     -0.58391033	      0.66859100	      1.24925537	     -0.59345218	      0.66051304	      1.23312403	     -0.52063076	      0.98429104	      1.20371911	     -0.04033449	      1.06067511	      1.20815733	     -0.15383071	      1.06787716	      1.14459218	     -0.12584442	      0.78230767	      1.22132155	     -0.59747963	      0.89890777	      1.16220622	     -0.53290907	      0.86184353	      1.12278842	     -0.58003663
